<svg version="1.0" xmlns="http://www.w3.org/2000/svg"
 width="200.000000pt" height="200.000000pt" viewBox="0 0 200.000000 200.000000"
 preserveAspectRatio="xMidYMid meet">
<g transform="translate(0.000000,200.000000) scale(0.100000,-0.100000)"
fill="#000000" stroke="none">
<path d="M940 1883 c0 -10 -6 -12 -20 -8 -26 8 -26 4 1 -165 l21 -136 52 0 53
0 23 136 c12 74 25 141 27 148 3 8 -4 12 -21 12 -15 0 -26 6 -26 14 0 9 -15
13 -55 13 -41 0 -55 -4 -55 -14z"/>
<path d="M310 545 l0 -145 120 0 120 0 0 80 0 80 -50 0 -50 0 0 -40 c0 -33 -3
-40 -20 -40 -19 0 -20 7 -20 105 l0 105 -50 0 -50 0 0 -145z"/>
<path d="M582 548 l3 -143 113 -3 112 -3 0 41 0 40 -65 0 c-51 0 -65 3 -65 15
0 11 12 15 45 15 l45 0 0 40 0 40 -45 0 c-68 0 -54 19 18 22 l62 3 3 38 3 37
-116 0 -116 0 3 -142z"/>
<path d="M866 623 c-20 -53 -26 -87 -26 -146 l0 -78 48 3 c45 3 47 4 50 36 3
28 7 32 33 32 27 0 29 -3 29 -36 l0 -35 48 3 47 3 -1 80 c-1 59 -8 95 -26 140
l-24 60 -76 3 -76 3 -26 -68z"/>
<path d="M1134 677 c-2 -7 -3 -71 -2 -143 l3 -129 48 -3 47 -3 0 46 c0 46 0
46 33 43 30 -3 32 -6 35 -46 l3 -43 47 3 47 3 3 53 c2 38 -2 61 -14 80 -12 18
-17 42 -15 70 4 71 -13 82 -131 82 -72 0 -100 -4 -104 -13z"/>
<path d="M1430 545 l0 -145 50 0 50 0 0 65 0 66 30 -34 c20 -23 30 -45 30 -66
0 -32 0 -32 48 -29 l47 3 3 143 3 142 -51 0 -50 0 0 -42 -1 -43 -37 43 c-33
37 -42 42 -79 42 l-43 0 0 -145z"/>
<path d="M187 344 c-4 -4 -7 -61 -7 -126 l0 -118 105 0 105 0 0 65 0 65 -45 0
c-43 0 -45 -1 -45 -30 0 -20 -5 -30 -15 -30 -11 0 -15 19 -17 88 l-3 87 -35 3
c-20 2 -39 0 -43 -4z"/>
<path d="M456 342 c-23 -38 -46 -126 -46 -179 l0 -63 40 0 c36 0 40 3 40 25 0
20 5 25 25 25 20 0 25 -5 25 -25 0 -23 4 -25 45 -25 l45 0 0 59 c0 59 -32 168
-55 183 -13 10 -113 10 -119 0z"/>
<path d="M668 344 c-5 -4 -8 -61 -8 -126 l0 -118 40 0 c39 0 40 1 40 35 0 30
3 35 24 35 21 0 25 -6 28 -33 3 -30 6 -32 46 -35 l42 -3 0 55 c0 32 -5 60 -13
67 -7 7 -11 28 -9 48 5 60 -13 73 -104 79 -43 2 -82 1 -86 -4z"/>
<path d="M951 336 c-22 -26 -51 -130 -51 -183 l0 -53 45 0 c41 0 45 2 45 25 0
20 5 25 25 25 20 0 25 -5 25 -25 0 -23 4 -25 41 -25 l41 0 -4 78 c-3 49 -12
94 -26 125 l-21 47 -54 0 c-34 0 -59 -5 -66 -14z"/>
<path d="M1150 276 c0 -52 6 -88 21 -125 l22 -51 62 0 62 0 22 51 c15 37 21
73 21 125 l0 74 -40 0 -40 0 0 -54 c0 -29 -5 -68 -12 -87 l-12 -34 -12 30 c-7
17 -13 56 -14 88 l0 57 -40 0 -40 0 0 -74z"/>
<path d="M1400 225 l0 -125 90 0 90 0 0 35 0 35 -50 0 c-27 0 -50 5 -50 10 0
6 18 10 41 10 39 0 40 1 37 33 -3 29 -7 33 -43 38 -39 6 -39 6 13 8 l52 1 0
40 0 40 -90 0 -90 0 0 -125z"/>
<path d="M1617 344 c-4 -4 -7 -61 -7 -126 l0 -118 105 0 105 0 0 65 0 65 -40
0 c-38 0 -40 -2 -40 -30 0 -23 -4 -30 -20 -30 -17 0 -19 8 -22 88 l-3 87 -35
3 c-20 2 -39 0 -43 -4z"/>
</g>
</svg>